<svg width="210" height="38" viewBox="0 0 210 38" fill="none" xmlns="http://www.w3.org/2000/svg">
<g filter="url(#filter0_d_195_416)">
<path d="M4.386 10H5.464V2.076L9.034 7.312H9.09L12.66 2.062V10H13.766V0.199999H12.646L9.076 5.548L5.506 0.199999H4.386V10ZM19.5223 10.168C20.8943 10.168 21.7763 9.622 22.5043 8.81L21.8323 8.208C21.2443 8.824 20.5443 9.23 19.5503 9.23C18.2763 9.23 17.1563 8.348 17.0023 6.822H22.7423C22.7563 6.654 22.7563 6.542 22.7563 6.444C22.7563 4.316 21.5243 2.608 19.3823 2.608C17.3803 2.608 15.9103 4.288 15.9103 6.388C15.9103 8.642 17.5343 10.168 19.5223 10.168ZM17.0023 5.954C17.1563 4.554 18.1083 3.518 19.3543 3.518C20.7823 3.518 21.5383 4.638 21.6643 5.954H17.0023ZM23.5795 11.806H24.4615L24.6575 10H30.5095V11.806H31.4055L31.5735 9.048H30.4815V2.762H25.3295V4.022C25.3295 6.458 24.9515 7.97 24.3635 9.048H23.5795V11.806ZM25.5115 9.048C26.0155 8.11 26.3655 6.514 26.3655 4.722V3.714H29.4035V9.048H25.5115ZM33.0517 10H34.0877L38.3997 4.274V10H39.4777V2.762H38.4277L34.1297 8.488V2.762H33.0517V10ZM48.1277 11.806H49.0237L49.1917 9.048H48.0997V2.762H47.0217V9.048H42.9617V2.762H41.8837V10H48.1277V11.806ZM50.6747 10H51.7107L56.0227 4.274V10H57.1007V2.762H56.0507L51.7527 8.488V2.762H50.6747V10ZM59.5067 10H60.5847V6.836H64.7567V10H65.8347V2.762H64.7567V5.884H60.5847V2.762H59.5067V10ZM71.5051 10.168C72.8631 10.168 73.7311 9.58 74.4591 8.768L73.7451 8.11C73.1711 8.726 72.4851 9.202 71.5611 9.202C70.0491 9.202 68.9011 7.956 68.9011 6.388C68.9011 4.806 70.0211 3.56 71.4911 3.56C72.4711 3.56 73.1431 4.022 73.7171 4.624L74.4031 3.896C73.7311 3.182 72.8771 2.608 71.5051 2.608C69.3911 2.608 67.7951 4.344 67.7951 6.388C67.7951 8.446 69.3911 10.168 71.5051 10.168ZM76.2411 10H77.3191V8.25L78.8451 6.682L81.4211 10H82.6951L79.5871 5.898L82.6111 2.762H81.2811L77.3191 6.934V2.762H76.2411V10ZM84.1845 10H85.2205L89.5325 4.274V10H90.6105V2.762H89.5605L85.2625 8.488V2.762H84.1845V10ZM96.1805 10.168C97.5525 10.168 98.4345 9.622 99.1625 8.81L98.4905 8.208C97.9025 8.824 97.2025 9.23 96.2085 9.23C94.9345 9.23 93.8145 8.348 93.6605 6.822H99.4005C99.4145 6.654 99.4145 6.542 99.4145 6.444C99.4145 4.316 98.1825 2.608 96.0405 2.608C94.0385 2.608 92.5685 4.288 92.5685 6.388C92.5685 8.642 94.1925 10.168 96.1805 10.168ZM93.6605 5.954C93.8145 4.554 94.7665 3.518 96.0125 3.518C97.4405 3.518 98.1965 4.638 98.3225 5.954H93.6605ZM105.499 10H106.577V3.714H110.693V10H111.771V2.762H105.499V10ZM114.181 12.24H115.259V8.614C115.819 9.426 116.687 10.154 118.031 10.154C119.781 10.154 121.489 8.754 121.489 6.388C121.489 3.98 119.767 2.608 118.031 2.608C116.701 2.608 115.847 3.35 115.259 4.218V2.762H114.181V12.24ZM117.835 9.188C116.491 9.188 115.217 8.068 115.217 6.388C115.217 4.708 116.491 3.574 117.835 3.574C119.207 3.574 120.383 4.666 120.383 6.374C120.383 8.152 119.235 9.188 117.835 9.188ZM126.781 10.168C128.965 10.168 130.575 8.432 130.575 6.388C130.575 4.316 128.979 2.608 126.809 2.608C124.625 2.608 123.029 4.344 123.029 6.388C123.029 8.46 124.611 10.168 126.781 10.168ZM126.809 9.202C125.283 9.202 124.135 7.942 124.135 6.388C124.135 4.834 125.213 3.56 126.781 3.56C128.307 3.56 129.469 4.834 129.469 6.388C129.469 7.942 128.377 9.202 126.809 9.202ZM136.882 12.24H137.974V9.412C138.436 9.804 138.898 10.154 139.78 10.154C141.516 10.154 142.734 8.74 142.734 6.388C142.734 4.008 141.516 2.608 139.78 2.608C138.954 2.608 138.436 2.972 137.974 3.392V0.199999H136.882V3.392C136.42 2.972 135.902 2.608 135.076 2.608C133.34 2.608 132.136 4.008 132.136 6.36C132.136 8.74 133.34 10.154 135.076 10.154C135.888 10.154 136.42 9.804 136.882 9.412V12.24ZM135.3 9.202C133.886 9.202 133.256 8.152 133.256 6.416C133.256 4.68 133.928 3.574 135.3 3.574C135.944 3.574 136.448 3.826 136.882 4.288V8.488C136.448 8.95 135.944 9.202 135.3 9.202ZM139.57 9.202C138.926 9.202 138.422 8.95 137.974 8.488V4.288C138.422 3.826 138.926 3.574 139.57 3.574C140.942 3.574 141.614 4.68 141.614 6.388C141.614 8.152 140.984 9.202 139.57 9.202ZM148.055 10.168C150.239 10.168 151.849 8.432 151.849 6.388C151.849 4.316 150.253 2.608 148.083 2.608C145.899 2.608 144.303 4.344 144.303 6.388C144.303 8.46 145.885 10.168 148.055 10.168ZM148.083 9.202C146.557 9.202 145.409 7.942 145.409 6.388C145.409 4.834 146.487 3.56 148.055 3.56C149.581 3.56 150.743 4.834 150.743 6.388C150.743 7.942 149.651 9.202 148.083 9.202ZM157.064 10.168C158.422 10.168 159.29 9.58 160.018 8.768L159.304 8.11C158.73 8.726 158.044 9.202 157.12 9.202C155.608 9.202 154.46 7.956 154.46 6.388C154.46 4.806 155.58 3.56 157.05 3.56C158.03 3.56 158.702 4.022 159.276 4.624L159.962 3.896C159.29 3.182 158.436 2.608 157.064 2.608C154.95 2.608 153.354 4.344 153.354 6.388C153.354 8.446 154.95 10.168 157.064 10.168ZM161.8 10H162.85V4.484L165.496 8.152L168.17 4.484V10H169.262V2.762H168.226L165.524 6.57L162.822 2.762H161.8V10ZM174.975 10.168C177.159 10.168 178.769 8.432 178.769 6.388C178.769 4.316 177.173 2.608 175.003 2.608C172.819 2.608 171.223 4.344 171.223 6.388C171.223 8.46 172.805 10.168 174.975 10.168ZM175.003 9.202C173.477 9.202 172.329 7.942 172.329 6.388C172.329 4.834 173.407 3.56 174.975 3.56C176.501 3.56 177.663 4.834 177.663 6.388C177.663 7.942 176.571 9.202 175.003 9.202ZM182.472 10H183.564V3.714H186.154V2.762H179.882V3.714H182.472V10ZM187.722 12.24H188.8V8.614C189.36 9.426 190.228 10.154 191.572 10.154C193.322 10.154 195.03 8.754 195.03 6.388C195.03 3.98 193.308 2.608 191.572 2.608C190.242 2.608 189.388 3.35 188.8 4.218V2.762H187.722V12.24ZM191.376 9.188C190.032 9.188 188.758 8.068 188.758 6.388C188.758 4.708 190.032 3.574 191.376 3.574C192.748 3.574 193.924 4.666 193.924 6.374C193.924 8.152 192.776 9.188 191.376 9.188ZM197.018 10H200.154C201.806 10 202.884 9.09 202.884 7.648C202.884 6.122 201.596 5.478 200.028 5.478H198.096V2.762H197.018V10ZM198.096 9.048V6.402H200.014C201.12 6.402 201.792 6.836 201.792 7.676C201.792 8.586 201.134 9.048 200.056 9.048H198.096ZM204.186 10H205.264V2.762H204.186V10ZM4.204 29H7.83C9.426 29 10.462 28.244 10.462 27.026C10.462 26.004 9.734 25.472 8.866 25.234C9.468 24.982 10.07 24.52 10.07 23.568C10.07 22.476 9.146 21.762 7.704 21.762H4.204V29ZM5.282 28.076V25.738H7.55C8.726 25.738 9.356 26.158 9.356 26.858C9.356 27.614 8.726 28.076 7.69 28.076H5.282ZM5.282 24.87V22.686H7.536C8.474 22.686 8.978 23.106 8.978 23.708C8.978 24.464 8.376 24.87 7.508 24.87H5.282ZM16.7864 29H17.8644V21.076L21.4344 26.312H21.4904L25.0604 21.062V29H26.1664V19.2H25.0464L21.4764 24.548L17.9064 19.2H16.7864V29ZM32.0627 29.168C34.2467 29.168 35.8567 27.432 35.8567 25.388C35.8567 23.316 34.2607 21.608 32.0907 21.608C29.9067 21.608 28.3107 23.344 28.3107 25.388C28.3107 27.46 29.8927 29.168 32.0627 29.168ZM32.0907 28.202C30.5647 28.202 29.4167 26.942 29.4167 25.388C29.4167 23.834 30.4947 22.56 32.0627 22.56C33.5887 22.56 34.7507 23.834 34.7507 25.388C34.7507 26.942 33.6587 28.202 32.0907 28.202ZM41.0715 29.168C42.4295 29.168 43.2975 28.58 44.0255 27.768L43.3115 27.11C42.7375 27.726 42.0515 28.202 41.1275 28.202C39.6155 28.202 38.4675 26.956 38.4675 25.388C38.4675 23.806 39.5875 22.56 41.0575 22.56C42.0375 22.56 42.7095 23.022 43.2835 23.624L43.9695 22.896C43.2975 22.182 42.4435 21.608 41.0715 21.608C38.9575 21.608 37.3615 23.344 37.3615 25.388C37.3615 27.446 38.9575 29.168 41.0715 29.168ZM45.8075 29H46.8855V27.25L48.4115 25.682L50.9875 29H52.2615L49.1535 24.898L52.1775 21.762H50.8475L46.8855 25.934V21.762H45.8075V29ZM53.7509 29H57.3769C58.9729 29 60.0089 28.244 60.0089 27.026C60.0089 26.004 59.2809 25.472 58.4129 25.234C59.0149 24.982 59.6169 24.52 59.6169 23.568C59.6169 22.476 58.6929 21.762 57.2509 21.762H53.7509V29ZM54.8289 28.076V25.738H57.0969C58.2729 25.738 58.9029 26.158 58.9029 26.858C58.9029 27.614 58.2729 28.076 57.2369 28.076H54.8289ZM54.8289 24.87V22.686H57.0829C58.0209 22.686 58.5249 23.106 58.5249 23.708C58.5249 24.464 57.9229 24.87 57.0549 24.87H54.8289ZM65.118 29.168C66.49 29.168 67.372 28.622 68.1 27.81L67.428 27.208C66.84 27.824 66.14 28.23 65.146 28.23C63.872 28.23 62.752 27.348 62.598 25.822H68.338C68.352 25.654 68.352 25.542 68.352 25.444C68.352 23.316 67.12 21.608 64.978 21.608C62.976 21.608 61.506 23.288 61.506 25.388C61.506 27.642 63.13 29.168 65.118 29.168ZM62.598 24.954C62.752 23.554 63.704 22.518 64.95 22.518C66.378 22.518 67.134 23.638 67.26 24.954H62.598ZM74.4364 29H75.4724L79.7844 23.274V29H80.8624V21.762H79.8124L75.5144 27.488V21.762H74.4364V29ZM90.7697 29.168C92.9537 29.168 94.5637 27.432 94.5637 25.388C94.5637 23.316 92.9677 21.608 90.7977 21.608C88.6137 21.608 87.0177 23.344 87.0177 25.388C87.0177 27.46 88.5997 29.168 90.7697 29.168ZM90.7977 28.202C89.2717 28.202 88.1237 26.942 88.1237 25.388C88.1237 23.834 89.2017 22.56 90.7697 22.56C92.2957 22.56 93.4577 23.834 93.4577 25.388C93.4577 26.942 92.3657 28.202 90.7977 28.202ZM99.9185 29.168C102.061 29.168 103.629 27.46 103.629 25.444C103.629 23.456 102.047 21.846 100.157 21.846C98.6165 21.846 97.6645 22.56 97.1605 23.414C97.2725 22.028 97.7765 21.216 99.2745 20.838L103.195 19.872L102.985 18.962L98.9525 19.914C96.4325 20.516 96.2505 22.756 96.2505 25.094C96.2505 27.614 97.7205 29.168 99.9185 29.168ZM99.9465 28.202C98.4905 28.202 97.3565 26.984 97.3565 25.472C97.3565 23.96 98.4205 22.742 99.9185 22.742C101.375 22.742 102.508 23.96 102.508 25.472C102.508 26.984 101.445 28.202 99.9465 28.202ZM105.231 29.112C106.603 29.112 107.625 28.524 107.625 22.882V22.714H110.649V29H111.727V21.762H106.603V22.364C106.603 27.796 105.875 28.174 105.007 28.174C104.881 28.174 104.629 28.118 104.489 28.076L104.363 29C104.587 29.056 104.993 29.112 105.231 29.112ZM116.296 29.154C117.57 29.154 118.396 28.566 118.9 27.922V29H119.964V24.576C119.964 23.652 119.712 22.952 119.208 22.448C118.69 21.93 117.892 21.65 116.87 21.65C115.806 21.65 115.036 21.902 114.238 22.266L114.56 23.148C115.232 22.84 115.904 22.63 116.758 22.63C118.116 22.63 118.9 23.302 118.9 24.59V24.814C118.256 24.632 117.612 24.506 116.688 24.506C114.854 24.506 113.594 25.318 113.594 26.872C113.594 28.384 114.938 29.154 116.296 29.154ZM116.506 28.286C115.526 28.286 114.686 27.754 114.686 26.844C114.686 25.948 115.456 25.36 116.8 25.36C117.682 25.36 118.382 25.514 118.914 25.668V26.34C118.914 27.488 117.836 28.286 116.506 28.286ZM125.509 29.168C126.867 29.168 127.735 28.58 128.463 27.768L127.749 27.11C127.175 27.726 126.489 28.202 125.565 28.202C124.053 28.202 122.905 26.956 122.905 25.388C122.905 23.806 124.025 22.56 125.495 22.56C126.475 22.56 127.147 23.022 127.721 23.624L128.407 22.896C127.735 22.182 126.881 21.608 125.509 21.608C123.395 21.608 121.799 23.344 121.799 25.388C121.799 27.446 123.395 29.168 125.509 29.168ZM131.995 29H133.087V22.714H135.677V21.762H129.405V22.714H131.995V29ZM137.245 29H138.281L142.593 23.274V29H143.671V21.762H142.621L138.323 27.488V21.762H137.245V29Z" fill="#009FE3"/>
</g>
<defs>
<filter id="filter0_d_195_416" x="0.203125" y="0.200195" width="209.062" height="36.9678" filterUnits="userSpaceOnUse" color-interpolation-filters="sRGB">
<feFlood flood-opacity="0" result="BackgroundImageFix"/>
<feColorMatrix in="SourceAlpha" type="matrix" values="0 0 0 0 0 0 0 0 0 0 0 0 0 0 0 0 0 0 127 0" result="hardAlpha"/>
<feOffset dy="4"/>
<feGaussianBlur stdDeviation="2"/>
<feComposite in2="hardAlpha" operator="out"/>
<feColorMatrix type="matrix" values="0 0 0 0 0 0 0 0 0 0 0 0 0 0 0 0 0 0 0.25 0"/>
<feBlend mode="normal" in2="BackgroundImageFix" result="effect1_dropShadow_195_416"/>
<feBlend mode="normal" in="SourceGraphic" in2="effect1_dropShadow_195_416" result="shape"/>
</filter>
</defs>
</svg>
